<svg xmlns="http://www.w3.org/2000/svg" viewBox="0 0 365.97 351.57"><defs><style>.cls-1{fill:#fff;}</style></defs><title>Asset 1</title><g id="Layer_2" data-name="Layer 2"><g id="Layer_1-2" data-name="Layer 1"><path class="cls-1" d="M198.44,282.34H84.94c-5.74,0-11.28-.74-15.88-4.72-6.15-5.31-7.92-11.87-6.4-19.77,3.2-16.67,6.37-33.35,9.06-50.11,1.38-8.62-1.08-17.22-1.91-25.8C65.68,139.49,61.3,97.07,57.14,54.64c-.28-2.87-1.45-4-4-4.79q-19.3-5.94-38.55-12.14C5,34.64-.9,26.32.11,17.54A19.64,19.64,0,0,1,17.28.09c3.4-.39,6.63.53,9.8,1.52C44.22,7,61.32,12.48,78.47,17.79c9.37,2.9,14.32,9.3,15.41,18.79,1,8.28,1.71,16.57,2.37,24.88.23,2.95,1.17,4.09,4.4,4.44,48.84,5.37,97.66,11,146.48,16.45Q297.53,88,347.94,93.56c12.34,1.36,19.81,11.31,17.66,23.57q-7.25,41.33-14.46,82.67c-2.49,14.23-9.07,19.76-23.44,19.76q-107,0-214-.09c-4.12,0-6.35.68-6.72,5.34a121,121,0,0,1-2.61,15.76c-.72,3.34.5,4,3.54,3.93,9.5-.15,19-.06,28.5-.06q88.49,0,177,0c6.9,0,13.23,1.13,18,6.81,9.46,11.35,3.56,27.84-11,30.39a52.44,52.44,0,0,1-8.95.69Q254.94,282.37,198.44,282.34Z"/><path class="cls-1" d="M139.19,322.49c-.13,16.75-13,29.31-29.67,29.07a29.47,29.47,0,0,1,.74-58.94C126.88,292.83,139.32,305.68,139.19,322.49Z"/><path class="cls-1" d="M311.36,322.78c-.35,16.65-13.33,29.15-29.88,28.78S253,338.49,253.3,321.77c.27-17,12.87-29.48,29.47-29.14S311.71,306.1,311.36,322.78Z"/></g></g></svg>