<svg xmlns="http://www.w3.org/2000/svg" viewBox="0 0 40 44"><defs><style>.cls-1{opacity:0.2;}.cls-2{fill:#231f20;}.cls-3{fill:#e0995e;}.cls-4{fill:#fff;}.cls-5{fill:#e0e0d1;}.cls-6{fill:#4f5d73;}</style></defs><title>Asset 1</title><g id="Layer_2" data-name="Layer 2"><g id="Layer_1-2" data-name="Layer 1"><g id="Layer_1-3" data-name="Layer 1"><g class="cls-1"><path class="cls-2" d="M36,4H4A4,4,0,0,0,0,8V40a4,4,0,0,0,4,4H36a4,4,0,0,0,4-4V8A4,4,0,0,0,36,4Z"/></g><path class="cls-3" d="M36,2H4A4,4,0,0,0,0,6V38a4,4,0,0,0,4,4H36a4,4,0,0,0,4-4V6A4,4,0,0,0,36,2Z"/><g class="cls-1"><rect class="cls-2" x="4" y="8" width="32" height="32"/></g><rect class="cls-4" x="4" y="6" width="32" height="32"/><rect class="cls-5" x="10" y="14" width="20" height="2"/><rect class="cls-5" x="10" y="18" width="20" height="2"/><rect class="cls-5" x="10" y="22" width="20" height="2"/><rect class="cls-5" x="10" y="26" width="20" height="2"/><rect class="cls-5" x="10" y="30" width="20" height="2"/><g class="cls-1"><path class="cls-2" d="M25,2H12V7a3,3,0,0,0,3,3H25a3,3,0,0,0,3-3V2Z"/></g><path class="cls-6" d="M25,0H12V5a3,3,0,0,0,3,3H25a3,3,0,0,0,3-3V0Z"/></g></g></g></svg>