<svg xmlns="http://www.w3.org/2000/svg" viewBox="0 0 343 341"><defs><style>.cls-1{fill:#2c6084;}.cls-2{fill:#e0e0e0;}.cls-3{fill:#ededed;}.cls-4{opacity:0.8;}.cls-5{fill:#383838;}.cls-6{fill:#458cc8;}.cls-7{fill:#fff;}</style></defs><title>Asset 1</title><g id="Layer_2" data-name="Layer 2"><g id="Layer_1-2" data-name="Layer 1"><polygon class="cls-1" points="163 279 142.57 279 163 316.89 176 341 248 279 163 279"/><polygon class="cls-2" points="163.33 62.29 176 94.71 248 279 176 341 343 341 343 219.28 163.33 62.29"/><polygon class="cls-3" points="343 62 163.22 62 163.33 62.29 343 219.28 343 62"/><g class="cls-4"><path class="cls-5" d="M261.4,155.48c5.6-7.56,7-8.82,8.12-8.82s3.22.42,10.08,6c6.3,5,8.54,6.86,8.54,8.4s-1.54,2.94-7.28,4.48c6.3,40,25.34,59.78,44.52,73.5v1.54c-5.32.84-10.5,7.56-13.58,13.72-1.4,2.66-2.1,3.08-3.36,3.08s-2.66-1-4.06-2.38a80.84,80.84,0,0,1-13.3-18.9c-5.6-11.34-8.68-23.94-10.36-36.4A230.16,230.16,0,0,1,279,172c-1.4,5-2.66,9.66-4.34,14.56-7,19.32-18.2,37.24-33.88,50.82a110.56,110.56,0,0,1-30.1,18.34,127.5,127.5,0,0,1-16.1,5.32l-.42-1.26c34.16-17.5,60.9-52.5,68.74-101.78H245.3c-11.34,26.6-24.92,43.82-45.78,56.7l-.84-1.12c16.24-17.64,26.88-43.12,32.9-74.62a24.27,24.27,0,0,0,.42-8.4l1.12-.84c19.6,4.48,24.64,6.86,24.64,9.24,0,2.1-2,3.22-6.58,4.06-1.54,4.34-3.22,8.54-4.76,12.46Z"/></g><polygon class="cls-6" points="176 94.71 163.22 62 139 0 0 0 0 279 248 279 176 94.71"/><path class="cls-7" d="M124,180.07H77l-10.33,24.5H42L92.17,87.85H110l48.83,116.72h-24.5Zm-6.64-18.55-16.63-42-16.63,42Z"/></g></g></svg>