<svg xmlns="http://www.w3.org/2000/svg" viewBox="0 0 148.12 225.93"><defs><style>.cls-1{fill:#55991d;}.cls-2{fill:#1098b2;}</style></defs><title>Asset 3</title><g id="Layer_2" data-name="Layer 2"><g id="Layer_1-2" data-name="Layer 1"><path class="cls-1" d="M48.64,84C38.81,89.75,30,96.18,23.91,105a63.36,63.36,0,0,0-11.58,43c1.93,21.11,12.11,37.2,29.43,49,9.25,6.32,19.68,9.31,30.66,10.24,19.38,1.64,35.94-5.17,49.28-18.85,19.54-20,24.66-43.5,14.66-70-.45-1.19-2.34-2.9-.48-3.91s2.25,1.42,2.92,2.5c10.08,16.42,11.2,34.16,7.07,52.42-4.63,20.54-17.08,36.08-34.76,46.33C95.39,224.82,77.8,228.58,59.35,224a80.44,80.44,0,0,1-9.14-2.46c-4.86-2-9.07-4.28-13.45-6.52-16.68-8.5-26.92-22.42-32.52-39.64-9.5-29.26-2.92-55.06,18.56-77.07A68.49,68.49,0,0,1,43.56,84.19C45.12,83.47,46.59,82.94,48.64,84Z"/><path class="cls-1" d="M97.6,50.61c12.49,1,23.79,1.36,35,2.88,4.19.57,5,1.79,3.86,5.63C132.85,71,124.79,78.44,114,84.06,102,90.37,88.85,90,76,91.88c-23.84,3.48-44.25,12.77-53.62,37.31-2.33,6.12-4.26,12.45-3.65,20-3.62-3.91-2.52-8-2.16-11.43,1.89-18.13,10.26-32.37,26.06-42A84,84,0,0,1,75.68,84c9.42-1.3,19.2-1.14,28.32-4.63,8.26-3.16,15.86-7.23,21.34-14.4,2.6-3.41,2-4.93-2.08-5.44-11-1.4-21.94-3.38-33-4.2C80,54.62,68.54,59.67,63.91,69l-.31.39c0-.15-2.07-3.57-2-3.68.71-2.53,1.07-.58,1.58-2.74,1.6-6.72-1.84-12.08-5.55-17-5.18-6.84-9.52-14.24-14.69-21.43C33.38,40.77,32.67,57.22,40.41,74.3c-4.85-2.61-7.24-7-8.81-11.24-5.27-14.22-4.11-28.25,3.24-41.6,1.89-3.43,4.22-6.62,6.27-10,1.64-2.66,2.65-2.11,4.06.33,6.15,10.62,12.52,21.1,18.68,31.72,2.77,4.78,4.07,10.06,3.58,17.35,5.84-6.73,12.64-8.16,19.17-10.46,10.77-3.8,15.73-13.16,19.63-23,1.42-3.57,4.52-8.4,2.38-11-1.86-2.26-6.17,2.06-9.58,2.86-6.14,1.45-12.18,3.22-18.44,4.22-7.82,1.24-13.86,5.26-17.38,13.2-.66-5.93,2.23-11,8.14-15.09,5-3.46,10.94-4.64,16.59-6.54,9.41-3.17,18.54-6.92,26.44-13.17,1-.81,2.05-2.69,3.77-1.53,1.47,1,.75,2.77.7,4.16C118.24,22.48,113.11,38.44,97.6,50.61Z"/><path class="cls-2" d="M55.24,194c3.28-1.28,5.88-.51,8.44-.3,19.06,1.6,35.57-9.15,43-28.06,5.94-15,0-35.39-13.38-45.77-15.07-11.7-34.85-12.26-50.17-1.42-1.93,1.37-5,4.29-6,2.87-1.87-2.6,1.86-4.33,3.59-5.95,16.83-15.81,40.69-19.83,60.6-6.68,14.34,9.48,23.15,23.14,22.6,40.68C122.78,186.59,87.34,207.65,55.24,194Zm65-40.05c.07-2.13-1.13-2.42-2.57-2.46s-2.11.52-2.09,2a3,3,0,0,0,2.61,3C119.55,156.62,120.16,155,120.25,154Z"/><path class="cls-2" d="M84.66,125.13c-2.26.83-3.78-.09-5.34-.53a29.55,29.55,0,0,0-35.48,18.34c-2.86,8-2.86,8-9.07,11.55.15.26.33.78.44.76,5-.59,6.44,2.37,7.94,6.52,6.65,18.34,26,25.91,41.93,17.35a3.71,3.71,0,0,1,2.85-.54c-8.76,12-29.93,12.57-44.31,1.71-13.14-9.92-17.31-34.59-5.14-48.72C51.37,116.6,71.24,115.71,84.66,125.13Z"/><path class="cls-1" d="M70.89,78C80.5,74,90.76,71.72,100,66.86,92.29,75.66,82.12,78.21,70.89,78Z"/><path class="cls-1" d="M46.7,45.64c5.15,9.3,5.11,18.87,2.77,28.62C50.13,64.53,45.78,55.26,46.7,45.64Z"/><path class="cls-1" d="M95.17,30.07,78.06,43.83c-.62.5-1.25,1.2-2.14.51a1.15,1.15,0,0,1-.06-1.76c4.8-5.17,9.71-10.24,16.32-13.13C92.65,29.24,93.4,29.68,95.17,30.07Z"/></g></g></svg>