<svg xmlns="http://www.w3.org/2000/svg" viewBox="0 0 197.97 302.03"><defs><style>.cls-1{fill:#579828;}.cls-2{fill:#458cc8;}</style></defs><title>Asset 7</title><g id="Layer_2" data-name="Layer 2"><g id="Layer_1-2" data-name="Layer 1"><g id="TVH_Logo" data-name="TVH Logo"><g id="Layer_1-2-2" data-name="Layer 1-2"><path class="cls-1" d="M65,112.3C51.87,120,40.1,128.58,32,140.36a84.71,84.71,0,0,0-15.48,57.48c2.58,28.21,16.19,49.72,39.34,65.49,12.36,8.45,26.3,12.44,41,13.69,25.91,2.19,48-6.92,65.87-25.2,26.12-26.73,33-58.14,19.6-93.56-.61-1.59-3.13-3.88-.65-5.23s3,1.9,3.91,3.35c13.47,21.94,15,45.65,9.45,70.06-6.19,27.45-22.83,48.22-46.46,61.92-21,12.15-44.52,17.18-69.18,11.06a109,109,0,0,1-12.22-3.29c-6.5-2.68-12.12-5.72-18-8.72-22.29-11.36-36-30-43.46-53-12.7-39.11-3.91-73.59,24.8-103a91.79,91.79,0,0,1,27.75-18.87C60.31,111.59,62.27,110.88,65,112.3Z"/><path class="cls-1" d="M83.07,86.22c2.14-9-1.08-18.18-6-24.75-6.93-9.15-12.73-19-19.64-28.65C44.62,54.52,43.67,76.5,54,99.33c-6.48-3.49-9.68-9.35-11.77-15-7.05-19-5.5-37.76,4.33-55.6,2.52-4.59,5.64-8.85,8.38-13.37,2.19-3.55,3.54-2.82,5.42.44,8.22,14.2,16.74,28.2,25,42.4,3.7,6.39,5.44,13.44,4.79,23.19,7.8-9,16.89-10.91,25.62-14,14.39-5.08,21-17.59,26.23-30.74,1.9-4.78,6.05-11.23,3.19-14.71-2.49-3-8.25,2.76-12.81,3.83-8.21,1.93-16.28,4.3-24.65,5.64-10.45,1.65-18.52,7-23.22,17.64-.89-7.93,3-14.7,10.87-20.17,6.69-4.62,14.63-6.2,22.18-8.74,12.58-4.24,24.78-9.25,35.34-17.6,1.33-1.09,2.74-3.6,5-2,2,1.34,1,3.7.93,5.56-.81,24-7.67,45.35-28.4,61.62,16.69,1.33,31.8,1.82,46.78,3.85,5.6.76,6.68,2.39,5.16,7.52-4.83,15.88-15.6,25.82-30,33.34-16,8.43-33.62,7.94-50.79,10.45-31.86,4.65-59.14,17.07-71.67,49.87-3.11,8.18-3.9,16.64-3.09,26.73-4.84-5.23-5.13-11.25-4.65-15.83C24.7,159.36,35.86,140.89,57,128a112.22,112.22,0,0,1,44.17-15.71c12.59-1.74,25.66-1.53,37.85-6.19,11-4.23,21.2-9.67,28.53-19.25,3.47-4.56,2.67-6.59-2.78-7.27C150,77.72,135.42,75.07,120.64,74c-13.71-1-29,5.8-35.22,18.27l-.41.52"/><path class="cls-2" d="M73.83,259.32c4.39-1.71,7.86-.68,11.28-.4,25.48,2.14,47.55-12.23,57.48-37.51,7.94-20,0-47.3-17.89-61.17-20.14-15.64-46.58-16.39-67.05-1.9-2.58,1.83-6.69,5.73-8,3.84-2.5-3.48,2.48-5.79,4.8-8,22.49-21.13,54.38-26.5,81-8.92,19.17,12.67,30.94,30.92,30.21,54.37C164.1,249.41,116.74,277.56,73.83,259.32Z"/><path class="cls-2" d="M117.53,238.71c-11.71,16-40,16.8-59.23,2.28-17.56-13.25-23.13-46.23-6.87-65.11,17.23-20,43.79-21.2,61.72-8.61-3,1.11-5.05-.12-7.13-.71,0,0-51.57-13.83-50.35,36.95C55.67,203.51,55.28,246.47,117.53,238.71Z"/><path class="cls-1" d="M94.75,104.28c12.84-5.35,26.56-8.4,38.91-14.89C123.35,101.15,109.76,104.56,94.75,104.28Z"/><path class="cls-1" d="M62.42,61c6.88,12.43,6.83,25.22,3.7,38.25C67,86.27,61.19,73.88,62.42,61Z"/><path class="cls-1" d="M127.2,40.21l-22.87,18.4c-.83.66-1.67,1.6-2.86.68a1.54,1.54,0,0,1-.26-2.16,1.66,1.66,0,0,1,.18-.19c6.42-6.91,13-13.69,21.82-17.55C123.83,39.11,124.84,39.69,127.2,40.21Z"/></g></g></g></g></svg>